External Loads File
version=1
nRows=93
nColumns=13
Range=5.000000e-03-10 seconds
endheader
time 	forceRightX 	forceRightY 	forceRightZ 	pointRightX 	pointRightY 	pointRightZ 	forceLeftX 	forceLeftY 	forceLeftZ 	pointLeftX 	pointLeftY 	pointLeftZ 		
5.005000 56.902435 924.256490 -0.000000 0.330090 0.167083 -0.146403 -53.553985 -35.659613 -0.000000 0.200296 0.488952 -0.378588
5.010000 123.833944 877.371022 -0.000000 0.322323 0.162551 -0.146031 -61.586031 -22.741133 -0.000000 0.208959 0.494150 -0.378489
5.015000 91.849418 835.578132 -0.000000 0.314338 0.158588 -0.145605 -66.145300 -13.256333 -0.000000 0.217861 0.498688 -0.378478
5.020000 164.139084 772.665173 -0.000000 0.306248 0.155209 -0.145205 -70.683910 7.716829 -0.000000 0.226796 0.502425 -0.378488
5.025000 133.320377 722.125569 -0.000000 0.297972 0.152584 -0.144807 -74.385176 21.957385 -0.000000 0.235631 0.505518 -0.378547
5.030000 106.832010 665.819162 -0.000000 0.289645 0.150538 -0.144502 -78.630467 37.543167 -0.000000 0.244459 0.507574 -0.378786
5.035000 154.721307 590.674871 -0.000000 0.281261 0.149282 -0.144393 -76.846155 63.299041 -0.000000 0.253187 0.509170 -0.379036
5.040000 129.724581 528.481379 -0.000000 0.272863 0.148883 -0.144344 -81.141837 80.522495 -0.000000 0.261801 0.509912 -0.379340
5.045000 169.369583 445.350129 -0.000000 0.264508 0.149325 -0.144397 -73.469097 108.434336 -0.000000 0.270053 0.509869 -0.379949
5.050000 144.525739 382.892883 -0.000000 0.256132 0.150499 -0.144607 -79.605035 126.517692 -0.000000 0.278163 0.509177 -0.380461
5.055000 169.653788 299.832070 -0.000000 0.247743 0.152478 -0.144980 -66.955954 156.351474 -0.000000 0.286318 0.507649 -0.380655
5.060000 145.256164 244.230230 -0.000000 0.239380 0.154998 -0.145444 -77.677352 176.960408 -0.000000 0.294140 0.504423 -0.381070
5.065000 151.455705 173.187189 -0.000000 0.230975 0.158186 -0.145799 -64.417289 209.751515 -0.000000 0.301699 0.501153 -0.381641
5.070000 144.379207 113.799220 -0.000000 0.222494 0.161850 -0.146139 -54.092771 242.836785 -0.000000 0.309197 0.496951 -0.381998
5.075000 124.143071 78.251146 -0.000000 0.214074 0.166123 -0.146524 -73.399276 271.576715 -0.000000 0.316573 0.492344 -0.382435
5.080000 112.122854 41.511695 -0.000000 0.205748 0.171027 -0.146787 -77.987472 306.982352 -0.000000 0.323796 0.486935 -0.382970
5.085000 100.078698 19.876295 -0.000000 0.197601 0.176428 -0.146935 -107.915411 337.704689 -0.000000 0.330887 0.480579 -0.383294
5.090000 92.388413 4.500378 -0.000000 0.189631 0.182554 -0.147185 -143.840374 366.844245 -0.000000 0.337893 0.473474 -0.383527
5.095000 86.054062 -19.551308 -0.000000 0.182049 0.189099 -0.147601 -116.799480 418.490835 -0.000000 0.344733 0.465969 -0.383776
5.100000 79.782535 -33.969044 -0.000000 0.174655 0.196197 -0.147710 -97.284746 464.993923 -0.000000 0.351315 0.458811 -0.383984
5.105000 79.770900 -32.904911 -0.000000 0.167800 0.203630 -0.147916 -139.465266 495.809769 -0.000000 0.357490 0.450658 -0.384041
5.110000 77.859412 -37.290457 -0.000000 0.161406 0.211496 -0.148149 -125.175809 539.624939 -0.000000 0.363632 0.442084 -0.384205
5.115000 81.363837 -30.052881 -0.000000 0.155453 0.219680 -0.148269 -171.535942 566.066091 -0.000000 0.369386 0.433058 -0.384301
5.120000 81.477221 -32.192660 -0.000000 0.150008 0.228390 -0.148378 -138.200913 612.097553 -0.000000 0.374733 0.423678 -0.384397
5.125000 86.201255 -21.919943 -0.000000 0.144939 0.237272 -0.148303 -188.245137 634.592228 -0.000000 0.379770 0.413861 -0.384430
5.130000 87.870504 -21.886609 -0.000000 0.140789 0.246444 -0.148318 -158.998528 676.216240 -0.000000 0.384348 0.403712 -0.384480
5.135000 91.361540 -11.427979 -0.000000 0.137037 0.255965 -0.148278 -210.181170 694.518815 -0.000000 0.388466 0.393453 -0.384503
5.140000 92.264184 -12.201918 -0.000000 0.133846 0.265801 -0.148220 -179.252822 733.209619 -0.000000 0.392043 0.382727 -0.384527
5.145000 93.077324 -3.218355 -0.000000 0.131187 0.275934 -0.148281 -232.395097 746.955987 -0.000000 0.395173 0.371883 -0.384610
5.150000 91.556877 -8.566284 -0.000000 0.129105 0.286226 -0.148274 -177.710689 788.460733 -0.000000 0.397703 0.360858 -0.384728
5.155000 89.327695 -2.456608 -0.000000 0.127511 0.296741 -0.148342 -232.278946 799.961900 -0.000000 0.399701 0.349837 -0.384808
5.160000 85.317490 1.552848 -0.000000 0.126582 0.307610 -0.148241 -288.344352 806.955550 -0.000000 0.401235 0.338683 -0.384624
5.165000 79.762634 -6.423658 -0.000000 0.126058 0.318706 -0.148387 -246.279767 845.220840 -0.000000 0.402005 0.327501 -0.384964
5.170000 72.159910 -15.256704 -0.000000 0.126003 0.329968 -0.148531 -199.810645 881.171399 -0.000000 0.402312 0.316278 -0.385095
5.175000 64.958405 -16.605623 -0.000000 0.126463 0.341310 -0.148674 -257.286507 889.938373 -0.000000 0.402094 0.305098 -0.385238
5.180000 54.660575 -26.126548 -0.000000 0.127391 0.352767 -0.149014 -208.594152 925.413134 -0.000000 0.401244 0.294089 -0.385200
5.185000 46.750318 -29.167396 -0.000000 0.128847 0.364162 -0.149340 -266.493140 932.518584 -0.000000 0.399860 0.283286 -0.385171
5.190000 34.544393 -37.706106 -0.000000 0.130860 0.375437 -0.149779 -192.960804 970.464532 -0.000000 0.397849 0.272682 -0.385159
5.195000 27.702302 -40.120029 -0.000000 0.133649 0.386493 -0.150096 -248.347223 975.698740 -0.000000 0.395246 0.262353 -0.385159
5.200000 16.444685 -44.633709 -0.000000 0.136597 0.397256 -0.150598 -173.950482 1006.271274 -0.000000 0.392038 0.252270 -0.385149
5.205000 11.770451 -45.510998 -0.000000 0.140278 0.407849 -0.151077 -223.229733 1007.475954 -0.000000 0.388199 0.242494 -0.385146
5.210000 2.842196 -46.495140 -0.000000 0.144610 0.417978 -0.151482 -151.356163 1027.221597 -0.000000 0.383802 0.233052 -0.385119
5.215000 0.077656 -45.921983 -0.000000 0.149321 0.427766 -0.151899 -193.601089 1021.734836 -0.000000 0.378837 0.223979 -0.385061
5.220000 -8.104041 -44.013548 -0.000000 0.154578 0.437424 -0.152296 -98.731604 1031.701387 -0.000000 0.373340 0.215332 -0.385044
5.225000 -10.454592 -41.567594 -0.000000 0.160417 0.446649 -0.152646 -134.446521 1018.879012 -0.000000 0.367337 0.207035 -0.385058
5.230000 -13.576321 -37.819030 -0.000000 0.166341 0.454980 -0.153119 -165.995381 1000.195656 -0.000000 0.360878 0.199348 -0.385082
5.235000 -21.590617 -30.146655 -0.000000 0.173401 0.462687 -0.153013 -82.573318 991.639212 -0.000000 0.353994 0.192164 -0.385052
5.240000 -27.051892 -22.087956 -0.000000 0.180950 0.470482 -0.153886 -110.707282 965.165238 -0.000000 0.346734 0.185527 -0.385025
5.245000 -35.724498 -7.291594 -0.000000 0.188410 0.477209 -0.154254 -18.199014 943.184774 -0.000000 0.339137 0.179466 -0.384967
5.250000 -43.779549 6.431784 -0.000000 0.196193 0.483595 -0.154739 -44.937889 909.761400 -0.000000 0.331217 0.173996 -0.384901
5.255000 -50.389977 29.190492 -0.000000 0.204493 0.489203 -0.155118 47.257519 872.920293 -0.000000 0.323028 0.169011 -0.384802
5.260000 -60.060313 47.602702 -0.000000 0.213089 0.494376 -0.155637 17.707293 833.278872 -0.000000 0.314535 0.164676 -0.384700
5.265000 -62.565320 74.914192 -0.000000 0.221801 0.498336 -0.155906 88.895859 783.675249 -0.000000 0.305817 0.161003 -0.384576
5.270000 -72.586078 95.089988 -0.000000 0.230479 0.502293 -0.156228 62.361881 737.277468 -0.000000 0.296832 0.157953 -0.384544
5.275000 -69.343513 123.480618 -0.000000 0.239392 0.505271 -0.156544 122.450654 676.265434 -0.000000 0.287638 0.155502 -0.384481
5.280000 -61.578548 150.868720 -0.000000 0.247773 0.507662 -0.156883 172.630639 607.076872 -0.000000 0.278267 0.153708 -0.384344
5.285000 -70.406101 169.386603 -0.000000 0.256256 0.509232 -0.157150 146.915600 552.941511 -0.000000 0.268836 0.152692 -0.384220
5.290000 -57.990958 194.784497 -0.000000 0.264623 0.509957 -0.157358 183.312528 476.933683 -0.000000 0.259389 0.152505 -0.384010
5.295000 -68.648516 211.943925 -0.000000 0.272846 0.509905 -0.157295 157.865857 419.861643 -0.000000 0.249954 0.153065 -0.383743
5.300000 -52.232319 237.057568 -0.000000 0.280824 0.509127 -0.157275 181.139404 341.019688 -0.000000 0.240563 0.154411 -0.383454
5.305000 -65.889654 255.541810 -0.000000 0.288487 0.507403 -0.156962 157.018324 284.720096 -0.000000 0.231276 0.156515 -0.383122
5.310000 -47.510135 283.109922 -0.000000 0.296137 0.504962 -0.156899 164.923651 210.253767 -0.000000 0.222137 0.159299 -0.382698
5.315000 -65.872191 305.958133 -0.000000 0.303628 0.501605 -0.156474 142.144764 160.119649 -0.000000 0.213131 0.162694 -0.382379
5.320000 -88.536859 330.409020 -0.000000 0.311167 0.497304 -0.156057 123.255195 113.628476 -0.000000 0.204337 0.166513 -0.382190
5.325000 -63.886458 368.929163 -0.000000 0.318190 0.492404 -0.155748 117.063264 55.969722 -0.000000 0.195748 0.170926 -0.382104
5.330000 -92.945651 398.938420 -0.000000 0.325159 0.486830 -0.155522 99.797718 22.852138 -0.000000 0.187361 0.175970 -0.381994
5.335000 -71.308995 441.137525 -0.000000 0.332157 0.480647 -0.155158 85.101721 -14.839453 -0.000000 0.179175 0.181638 -0.381873
5.340000 -46.305004 482.851410 -0.000000 0.339302 0.473988 -0.155001 67.848515 -41.942226 -0.000000 0.171286 0.187776 -0.381737
5.345000 -82.768597 516.453704 -0.000000 0.345999 0.466625 -0.154891 57.797916 -52.282794 -0.000000 0.163657 0.194379 -0.381712
5.350000 -125.257279 545.500393 -0.000000 0.352811 0.458782 -0.154719 51.891281 -56.511152 -0.000000 0.156347 0.201498 -0.381739
5.355000 -97.155156 586.206695 -0.000000 0.359193 0.450607 -0.154767 41.733738 -61.147724 -0.000000 0.149404 0.209119 -0.381546
5.360000 -56.055640 623.589439 -0.000000 0.365451 0.441949 -0.154825 34.063080 -60.689575 -0.000000 0.142866 0.217050 -0.381435
5.365000 -103.065705 647.093799 -0.000000 0.371401 0.432889 -0.154806 38.159077 -51.758209 -0.000000 0.136749 0.225265 -0.381432
5.370000 -70.482182 678.053411 -0.000000 0.377030 0.423595 -0.154866 38.642878 -45.522008 -0.000000 0.131196 0.233893 -0.381412
5.375000 -121.453627 695.143125 -0.000000 0.382357 0.414001 -0.154890 46.702653 -33.457792 -0.000000 0.126182 0.242813 -0.381441
5.380000 -174.242794 706.292682 -0.000000 0.387114 0.403829 -0.154743 54.661954 -20.524691 -0.000000 0.121698 0.252157 -0.381482
5.385000 -141.238333 734.087970 -0.000000 0.391317 0.393616 -0.153805 60.333673 -14.690886 -0.000000 0.117836 0.261834 -0.381456
5.390000 -102.256884 759.662025 -0.000000 0.395531 0.383207 -0.154289 66.300269 -10.962287 -0.000000 0.114588 0.271810 -0.381397
5.395000 -157.391559 769.021478 -0.000000 0.399074 0.372310 -0.154083 72.171698 -0.300987 -0.000000 0.111958 0.282088 -0.381436
5.400000 -118.332789 794.627136 -0.000000 0.402083 0.361415 -0.153893 75.884448 0.304025 -0.000000 0.110009 0.292502 -0.381341
5.405000 -173.655037 803.558449 -0.000000 0.404492 0.350602 -0.153650 77.224319 8.743371 -0.000000 0.108705 0.303124 -0.381309
5.410000 -128.836707 831.371615 -0.000000 0.406331 0.339363 -0.153139 77.129848 6.789649 -0.000000 0.108078 0.314208 -0.381186
5.415000 -184.125017 841.178471 -0.000000 0.407522 0.328255 -0.152633 73.838750 13.491835 -0.000000 0.108130 0.324723 -0.381085
5.420000 -120.471772 873.417567 -0.000000 0.408238 0.317165 -0.152278 70.217899 9.537851 -0.000000 0.108795 0.335564 -0.380883
5.425000 -175.247066 886.079760 -0.000000 0.408606 0.306014 -0.152205 63.435842 14.877699 -0.000000 0.110155 0.346423 -0.380738
5.430000 -122.624472 917.609938 -0.000000 0.408085 0.295134 -0.152235 56.996933 12.217326 -0.000000 0.112078 0.357309 -0.380596
5.435000 -176.475005 932.391792 -0.000000 0.406851 0.284488 -0.152229 48.116639 15.647238 -0.000000 0.114592 0.368226 -0.380441
5.440000 -117.399732 965.075259 -0.000000 0.405130 0.273935 -0.150897 40.417068 12.564128 -0.000000 0.117715 0.378813 -0.380241
5.445000 -170.432582 980.095129 -0.000000 0.402368 0.263648 -0.150603 30.934000 13.270411 -0.000000 0.121342 0.389361 -0.380197
5.450000 -100.355413 1011.106999 -0.000000 0.399278 0.253628 -0.150445 23.043166 9.049493 -0.000000 0.125547 0.399716 -0.380018
5.455000 -153.547475 1023.819071 -0.000000 0.395560 0.243728 -0.150234 14.324812 6.489017 -0.000000 0.130237 0.409785 -0.380034
5.460000 -80.977103 1048.494958 -0.000000 0.391469 0.234198 -0.150514 6.783150 0.936790 -0.000000 0.135422 0.419556 -0.380031
5.465000 -132.109426 1056.094663 -0.000000 0.386626 0.224941 -0.150283 -0.383844 -4.942989 -0.000000 0.141002 0.428943 -0.380667
